<?xml version="1.0" standalone="no"?>
<!DOCTYPE svg PUBLIC "-//W3C//DTD SVG 20010904//EN"
 "http://www.w3.org/TR/2001/REC-SVG-20010904/DTD/svg10.dtd">
<svg version="1.0" xmlns="http://www.w3.org/2000/svg"
 width="260.000000pt" height="260.000000pt" viewBox="0 0 260.000000 260.000000"
 preserveAspectRatio="xMidYMid meet">
<metadata>
Created by potrace 1.14, written by Peter Selinger 2001-2017
</metadata>
<g transform="translate(0.000000,260.000000) scale(0.100000,-0.100000)"
fill="#000000" stroke="none">
<path d="M1094 2370 c-28 -5 -64 -15 -80 -21 -16 -7 -36 -13 -44 -14 -32 -5
-148 -54 -210 -90 -103 -59 -300 -228 -293 -253 1 -4 -5 -11 -13 -15 -42 -24
-148 -219 -189 -348 -33 -106 -40 -158 -40 -329 0 -170 6 -214 41 -329 99
-326 364 -594 698 -705 106 -35 298 -60 401 -51 90 7 219 30 238 42 6 4 17 8
22 8 39 1 215 81 215 97 0 6 3 8 6 5 8 -8 64 24 64 35 0 4 5 8 11 8 15 0 83
54 150 120 65 63 172 208 163 221 -3 5 0 9 5 9 15 0 63 102 95 198 32 95 56
243 56 340 0 71 -15 201 -27 232 -3 8 -7 24 -8 35 -17 119 -115 312 -228 447
-55 65 -186 182 -194 174 -3 -2 -16 7 -30 20 -33 30 -210 117 -223 109 -5 -3
-10 -2 -10 3 0 5 -6 9 -12 10 -7 1 -56 11 -108 22 -108 24 -372 35 -456 20z
m863 -497 c51 -37 82 -85 89 -137 l7 -48 -464 -465 c-486 -486 -527 -522 -590
-508 -33 8 -89 51 -89 69 0 7 -88 99 -195 205 -142 141 -195 200 -195 217 0
22 112 158 146 177 30 17 78 -6 142 -67 35 -33 75 -80 88 -103 29 -49 107
-123 129 -123 29 0 73 29 78 52 9 32 717 735 758 752 37 16 51 13 96 -21z"/>
</g>
</svg>
